<svg width="101" height="86" viewBox="0 0 101 86" fill="none" xmlns="http://www.w3.org/2000/svg">
<path d="M13.1153 84.7133C13.8232 82.2842 15.3131 80.1566 17.3536 78.6607C18.4479 77.8362 19.6594 77.1803 20.948 76.7147C22.3441 76.1865 23.8006 75.8343 25.2838 75.6662C26.147 75.554 25.6838 75.0907 24.601 74.6907C20.7578 73.3739 16.8171 71.979 12.8374 70.7305C13.0112 70.1444 13.2163 69.5681 13.4518 69.004L14.1395 67.2727L14.954 65.5998C15.2272 65.0438 15.4759 64.4731 15.7978 63.9464C16.4269 62.8783 16.9927 61.7761 17.7194 60.7665L18.7386 59.2205L19.8605 57.7378C22.8657 53.806 26.3803 50.2913 30.3121 47.2861C34.2676 44.311 38.5222 41.7563 43.0072 39.6632C47.4866 37.5788 52.0896 35.7708 56.7901 34.2495C61.9258 32.5572 67.1394 31.0989 72.3335 29.6016C74.9282 28.8505 77.5179 28.1043 80.0979 27.3093C82.6779 26.5143 85.2482 25.6999 87.7258 24.6757C90.2103 23.6913 92.5511 22.3774 94.6854 20.7691C96.8176 19.2011 98.5161 17.1167 99.6211 14.7118C100.139 13.5082 100.476 12.2344 100.621 10.932C100.784 9.63823 100.746 8.32704 100.509 7.04485C100.036 4.52337 98.6798 2.10438 96.4607 0.899727C95.9779 0.602222 95.1926 2.16778 95.5438 2.42139C95.7443 2.54121 95.9352 2.67648 96.1145 2.82611C96.2754 2.98706 96.4363 3.1481 96.6265 3.28954C96.8167 3.43097 96.9143 3.64549 97.0704 3.82107C97.2145 4.00641 97.3449 4.20199 97.4606 4.4063C97.9586 5.25736 98.3004 6.19056 98.4701 7.1619C98.8175 9.33506 98.5418 11.5623 97.6751 13.5852C97.4656 14.0799 97.2211 14.559 96.9435 15.019L96.4998 15.6676C96.3534 15.8919 96.1486 16.1065 95.973 16.3309C95.2257 17.2082 94.3942 18.0102 93.4906 18.7256C91.5271 20.1939 89.3789 21.3976 87.1014 22.3055C84.6833 23.2832 82.2172 24.1378 79.7126 24.866C69.4999 28.0264 58.9165 30.6307 48.5965 34.6104C44.4672 36.1803 40.449 38.0281 36.5695 40.1411C35.6038 40.6776 34.6478 41.2532 33.687 41.8043L30.8681 43.6477L28.1467 45.6376L25.552 47.7934C22.1459 50.7573 19.1261 54.1375 16.5635 57.8548C13.9565 61.6089 11.9644 65.7545 10.6621 70.1356C7.90311 69.2993 5.09708 68.6267 2.25878 68.1213C2.04859 68.0797 1.83077 68.1036 1.63454 68.1896C1.39069 67.5458 0.112863 67.3897 0.156758 68.1261C0.204911 68.922 0.294532 69.7147 0.425083 70.5013C0.595782 71.306 0.790818 72.0863 1.04443 72.8764C1.27502 73.6535 1.55688 74.4143 1.88817 75.154C2.23932 75.9051 2.6246 76.6318 3.0294 77.3293C3.42626 78.0364 3.87287 78.7144 4.36579 79.3582C4.87301 80.002 5.39968 80.6262 5.94592 81.2115C6.48337 81.7993 7.05853 82.3516 7.66762 82.8648C8.29189 83.3818 8.93075 83.8646 9.56966 84.3084L9.59401 84.4695C9.62815 84.728 9.95007 84.8254 10.3012 84.7961L10.9889 85.2302C11.5693 85.518 12.9398 85.2693 13.1153 84.7133ZM7.2676 74.3592C7.34361 74.4201 7.42729 74.4709 7.5164 74.5103L7.82849 74.6274L7.36518 74.5444L7.2676 74.3592ZM6.96034 73.7788C6.56529 73.0813 6.17021 72.3742 5.77029 71.6719C6.29214 71.8718 6.81892 72.0474 7.34565 72.223C7.1213 72.5351 7.33105 73.0082 8.1114 73.1642L8.46742 73.2373L7.48217 73.3935C7.36765 73.4018 7.25787 73.4423 7.1655 73.5105C7.07313 73.5787 7.00197 73.6718 6.96034 73.7788ZM21.9429 74.8615L21.7088 74.9103C21.6379 74.8535 21.5591 74.8074 21.4748 74.7737C21.2797 74.6956 21.0846 74.6274 20.8846 74.5543L21.9429 74.8615ZM20.3286 75.2857L20.1189 75.3491C20.1517 75.3309 20.1787 75.304 20.1969 75.2711L20.3286 75.2857ZM19.7969 75.4565C18.7164 75.8303 17.6745 76.3072 16.6854 76.8806C16.6289 76.8311 16.5666 76.7886 16.5 76.7538C16.0513 76.5685 15.6027 76.3928 15.1589 76.2124C15.393 75.9783 15.2563 75.637 14.6272 75.4175L13.3201 74.9492C15.2668 74.8983 17.2131 75.062 19.124 75.437C19.3456 75.4815 19.5731 75.4881 19.7969 75.4565ZM15.7733 77.5293C15.4319 77.7732 15.1052 78.0316 14.7931 78.3047C13.9104 78.0462 13.0226 77.7731 12.1399 77.4756C12.4049 77.5164 12.6759 77.4929 12.93 77.4073L15.7733 77.5293ZM13.3202 79.7971C12.6361 80.6318 12.0517 81.5435 11.579 82.5137C11.4606 82.4252 11.3555 82.32 11.2669 82.2016C11.6571 82.0943 11.9253 81.8845 11.7351 81.6163L11.4376 81.1823C11.6965 80.9058 12.0128 80.6893 12.3642 80.5482C12.8568 80.2507 12.5837 79.8995 12.0814 79.7386L13.3202 79.7971ZM9.33068 81.7188C8.46583 80.9248 7.65293 80.076 6.89699 79.1777C6.17408 78.2565 5.51258 77.2888 4.91685 76.2807C4.2964 75.2552 3.7582 74.1822 3.30737 73.0716C2.81936 71.9456 2.40552 70.7888 2.06856 69.6088C2.06856 69.6088 2.10761 69.6478 2.16125 69.6429L3.44883 69.955C3.3751 70.013 3.3237 70.0947 3.30326 70.1862C3.28282 70.2778 3.29454 70.3736 3.3366 70.4575C4.14621 71.9889 4.9998 73.4958 5.746 74.8761C5.66796 75.1199 5.80452 75.4126 6.17031 75.6126L6.54586 76.2125C6.40929 76.4466 6.49218 76.7343 6.94087 76.9001C7.37494 77.6366 7.77486 78.3486 8.15527 79.0412C8.15527 79.0412 8.12109 79.0753 8.10646 79.09C8.16312 80.0322 8.58693 80.9146 9.2868 81.548L9.33068 81.7188ZM10.2768 71.6328L10.2036 71.9108C8.96008 71.5779 7.73708 71.1724 6.54091 70.6964L10.2768 71.6328ZM12.4081 72.1839L12.5642 72.2229C12.4968 72.2353 12.4323 72.2601 12.374 72.2961L12.4081 72.1839Z" fill="#7DFFAF"/>
</svg>
