<svg width="24" height="24" viewBox="0 0 366 366" fill="none" xmlns="http://www.w3.org/2000/svg">
<path d="M0.5 183V365.5H183H365.5V183V0.5H183H0.5V183Z" fill="#9854E6"/>
<path d="M81.2 184.2L81.1 199.1H104.9H128.7V266.6V334.1H145.5H162.3V266.6V199.1H186H209.8V184.4C209.8 176.3 209.6 169.5 209.4 169.3C209.2 169.1 180.3 169 145.3 169L81.5 169.2L81.2 184.2Z" fill="#2C243B"/>
<path d="M295 168.9C304.3 171.2 311.3 175.3 317.8 182.1C321.2 185.7 326.1 192.2 326.5 193.8C326.6 194.3 310.7 204.9 301.1 210.9C300.8 211.1 299.4 209.6 297.8 207.3C293.1 200.5 288.2 197.5 280.7 197C269.6 196.2 262.5 202 262.6 211.7C262.6 214.5 263 216.2 264.2 218.5C266.6 223.5 271.2 226.6 285.3 232.7C311.4 243.9 322.6 251.4 329.6 261.9C337.4 273.7 339.1 292.4 333.8 306.4C328 321.6 313.6 331.9 293.4 335.3C287.1 336.4 272.3 336.2 265.6 335C250.9 332.4 237 325.2 228.5 315.6C225.1 311.9 218.6 302.2 219 301.5C219.2 301.3 220.7 300.3 222.4 299.4C224 298.5 230.2 294.9 236 291.6L246.5 285.5L248.7 288.7C251.8 293.4 258.5 299.8 262.5 302C274.1 308.1 290.1 307.3 298 300.2C301.4 297.1 302.8 293.9 302.8 289.3C302.8 285.1 302.3 283.2 300.1 280C297.3 275.9 291.5 272.5 275 265.4C256.2 257.3 248.1 252.2 240.6 244.3C236.3 239.7 232.3 232.2 230.6 226.1C229.2 220.9 228.9 208 230 202.8C233.9 184.6 247.6 171.9 267.4 168.2C273.8 166.9 288.7 167.3 295 168.9Z" fill="#2C243B"/>
</svg>
